<svg id="Layer_1" data-name="Layer 1" xmlns="http://www.w3.org/2000/svg" viewBox="0 0 140.3 38.87"><defs><style>.cls-1{fill:#424242;}.cls-2{fill:#8ec44d;}.cls-3{fill:none;stroke:#424242;stroke-miterlimit:10;}</style></defs><title>grassroots</title><path class="cls-1" d="M43.46,30.77A8.32,8.32,0,0,1,41.29,25a8.41,8.41,0,0,1,2.17-5.83,6.87,6.87,0,0,1,5.25-2.41,6.46,6.46,0,0,1,4.09,1.38,5.37,5.37,0,0,1,2.14,3.43H53.88a4.18,4.18,0,0,0-1.77-2.72,5.54,5.54,0,0,0-3.4-1.08,5.74,5.74,0,0,0-4.49,2.11A7.49,7.49,0,0,0,42.35,25a7.5,7.5,0,0,0,1.87,5.12,5.74,5.74,0,0,0,4.49,2.11,5,5,0,0,0,3.82-1.72,5.76,5.76,0,0,0,1.59-4.11V26H48.71V25h6.23v7.81h-.82V29.56A5.05,5.05,0,0,1,52,32.17a5.76,5.76,0,0,1-3.32,1A6.84,6.84,0,0,1,43.46,30.77Z" transform="translate(-0.7 -5.36)"/><path class="cls-1" d="M57.68,32.78V21.54h1.06v2.53a4.8,4.8,0,0,1,1.32-2,2.94,2.94,0,0,1,1.9-.74h.6v1.22a.38.38,0,0,1-.18-.06l-.11-.05A3,3,0,0,0,60,23.52a5,5,0,0,0-1.29,2.66v6.6Z" transform="translate(-0.7 -5.36)"/><path class="cls-1" d="M64.67,32.25A2.82,2.82,0,0,1,63.49,30a2.78,2.78,0,0,1,1.16-2.21,4.92,4.92,0,0,1,2.85-1.11,11.89,11.89,0,0,0,2.72-.53q1.08-.37,1.08-.87v-1a1.75,1.75,0,0,0-1-1.48,4,4,0,0,0-2.27-.61,4.06,4.06,0,0,0-2.19.58,1.73,1.73,0,0,0-.9,1.43v.58H64v-.69a2.29,2.29,0,0,1,1.19-1.93,5.24,5.24,0,0,1,2.9-.79,5.58,5.58,0,0,1,3,.77A2.17,2.17,0,0,1,72.3,24v6.8a2.19,2.19,0,0,0,.29,1.14.83.83,0,0,0,.72.47.86.86,0,0,0,.23,0,.4.4,0,0,0,.16-.08v.5a2.41,2.41,0,0,1-1,.19,1.36,1.36,0,0,1-1.06-.53,2,2,0,0,1-.42-1.27,2.66,2.66,0,0,1-1.35,1.45,4.88,4.88,0,0,1-2.37.56A4.4,4.4,0,0,1,64.67,32.25ZM70,31.46a3.7,3.7,0,0,0,1.32-2.29V26.58a3.25,3.25,0,0,1-1.35.53,19,19,0,0,1-2.45.34,3.56,3.56,0,0,0-2.09.84A2.16,2.16,0,0,0,64.57,30a2.08,2.08,0,0,0,.87,1.69,3.05,3.05,0,0,0,2.06.71A3.69,3.69,0,0,0,70,31.46Z" transform="translate(-0.7 -5.36)"/><path class="cls-1" d="M76.08,32a3.22,3.22,0,0,1-1.27-2.56h1a2.48,2.48,0,0,0,1,1.95,3.61,3.61,0,0,0,2.35.79,4.26,4.26,0,0,0,2.56-.71,2.34,2.34,0,0,0,1-1.93,1.8,1.8,0,0,0-1-1.53,6.5,6.5,0,0,0-2.69-.77,5.08,5.08,0,0,1-2.85-1A2.54,2.54,0,0,1,75,24.18,2.48,2.48,0,0,1,76.08,22a5.18,5.18,0,0,1,3-.76,4.88,4.88,0,0,1,3,.82,2.55,2.55,0,0,1,1.14,2.19h-1a2.41,2.41,0,0,0-1-1.61,3.53,3.53,0,0,0-2.11-.58,3.92,3.92,0,0,0-2.27.58A1.76,1.76,0,0,0,76,24.18a1.8,1.8,0,0,0,1,1.53,6.27,6.27,0,0,0,2.69.76,5.07,5.07,0,0,1,2.85,1.06,2.93,2.93,0,0,1-.19,4.64,5.37,5.37,0,0,1-3.27.9A4.51,4.51,0,0,1,76.08,32Z" transform="translate(-0.7 -5.36)"/><path class="cls-1" d="M86.42,32a3.24,3.24,0,0,1-1.26-2.56h1a2.49,2.49,0,0,0,1,1.95,3.59,3.59,0,0,0,2.35.79A4.29,4.29,0,0,0,92,31.49a2.34,2.34,0,0,0,1-1.93A1.81,1.81,0,0,0,92,28a6.41,6.41,0,0,0-2.69-.77,5.13,5.13,0,0,1-2.85-1,2.55,2.55,0,0,1-1.08-2.08A2.5,2.5,0,0,1,86.42,22a5.19,5.19,0,0,1,3-.76,4.88,4.88,0,0,1,3,.82,2.54,2.54,0,0,1,1.13,2.19h-1a2.4,2.4,0,0,0-1-1.61,3.55,3.55,0,0,0-2.11-.58,3.92,3.92,0,0,0-2.27.58,1.75,1.75,0,0,0-.85,1.53,1.82,1.82,0,0,0,1,1.53,6.36,6.36,0,0,0,2.69.76,5.07,5.07,0,0,1,2.85,1.06,2.92,2.92,0,0,1-.18,4.64,5.37,5.37,0,0,1-3.27.9A4.55,4.55,0,0,1,86.42,32Z" transform="translate(-0.7 -5.36)"/><path class="cls-1" d="M96.42,32.78V21.54h1.06v2.53a4.8,4.8,0,0,1,1.32-2,3,3,0,0,1,1.9-.74h.61v1.22a.38.38,0,0,1-.19-.06l-.1-.05a3,3,0,0,0-2.25,1.06,5,5,0,0,0-1.29,2.66v6.6Z" transform="translate(-0.7 -5.36)"/><path class="cls-1" d="M103.89,31.38a6,6,0,0,1-1.45-4.22,6.46,6.46,0,0,1,1.45-4.38,4.83,4.83,0,0,1,3.83-1.64,4.89,4.89,0,0,1,3.83,1.64A6.5,6.5,0,0,1,113,27.16a6.05,6.05,0,0,1-1.42,4.22A5,5,0,0,1,107.72,33,4.89,4.89,0,0,1,103.89,31.38Zm6.89-.63a5.39,5.39,0,0,0,1.14-3.59,5.62,5.62,0,0,0-1.14-3.7,4.06,4.06,0,0,0-6.12,0,5.52,5.52,0,0,0-1.16,3.7,5.29,5.29,0,0,0,1.16,3.59,4.16,4.16,0,0,0,6.12,0Z" transform="translate(-0.7 -5.36)"/><path class="cls-1" d="M116.38,31.38a6,6,0,0,1-1.45-4.22,6.41,6.41,0,0,1,1.45-4.38,4.81,4.81,0,0,1,3.82-1.64A4.87,4.87,0,0,1,124,22.78a6.5,6.5,0,0,1,1.43,4.38A6.06,6.06,0,0,1,124,31.38,4.94,4.94,0,0,1,120.2,33,4.87,4.87,0,0,1,116.38,31.38Zm6.89-.63a5.44,5.44,0,0,0,1.13-3.59,5.68,5.68,0,0,0-1.13-3.7,3.8,3.8,0,0,0-3.07-1.39,3.74,3.74,0,0,0-3.06,1.39,5.58,5.58,0,0,0-1.16,3.7,5.34,5.34,0,0,0,1.16,3.59,3.79,3.79,0,0,0,3.06,1.34A3.85,3.85,0,0,0,123.27,30.75Z" transform="translate(-0.7 -5.36)"/><path class="cls-1" d="M128.83,32.46a2.46,2.46,0,0,1-.6-1.69V22.36h-1.61v-.82h1.61v-3.2h1.05v3.2h1.53v.82h-1.53v8.41a1.9,1.9,0,0,0,.35,1.14.91.91,0,0,0,.79.47,1.69,1.69,0,0,0,.82-.18V33a2.92,2.92,0,0,1-.9.21A2,2,0,0,1,128.83,32.46Z" transform="translate(-0.7 -5.36)"/><path class="cls-1" d="M133.45,32a3.24,3.24,0,0,1-1.26-2.56h1a2.49,2.49,0,0,0,1,1.95,3.59,3.59,0,0,0,2.35.79,4.29,4.29,0,0,0,2.56-.71,2.34,2.34,0,0,0,.95-1.93A1.81,1.81,0,0,0,139,28a6.41,6.41,0,0,0-2.69-.77,5.13,5.13,0,0,1-2.85-1,2.55,2.55,0,0,1-1.08-2.08A2.5,2.5,0,0,1,133.45,22a5.19,5.19,0,0,1,3-.76,4.88,4.88,0,0,1,3,.82,2.54,2.54,0,0,1,1.13,2.19h-1a2.4,2.4,0,0,0-1-1.61,3.55,3.55,0,0,0-2.11-.58,3.92,3.92,0,0,0-2.27.58,1.75,1.75,0,0,0-.85,1.53,1.82,1.82,0,0,0,1,1.53,6.36,6.36,0,0,0,2.69.76,5.07,5.07,0,0,1,2.85,1.06,2.92,2.92,0,0,1-.18,4.64,5.37,5.37,0,0,1-3.27.9A4.55,4.55,0,0,1,133.45,32Z" transform="translate(-0.7 -5.36)"/><path class="cls-1" d="M54.26,35.93h3a2.54,2.54,0,0,1,2,1.08,4.09,4.09,0,0,1,.84,2.6,4.48,4.48,0,0,1-.84,2.74,2.52,2.52,0,0,1-2,1.13h-3Zm3,7.07a2,2,0,0,0,1.68-1,4,4,0,0,0,.7-2.39,3.61,3.61,0,0,0-.7-2.25,2,2,0,0,0-1.68-.93H54.77V43Z" transform="translate(-0.7 -5.36)"/><path class="cls-1" d="M62.37,43.48V35.93h4.92v.5H62.87v2.9h4v.47h-4V43h4.42v.48Z" transform="translate(-0.7 -5.36)"/><path class="cls-1" d="M71.29,43.48l-2.7-7.55h.57l2.42,6.88L74,35.93h.58l-2.71,7.55Z" transform="translate(-0.7 -5.36)"/><path class="cls-1" d="M76.54,43.48V35.93h4.93v.5H77.05v2.9h4v.47h-4V43h4.42v.48Z" transform="translate(-0.7 -5.36)"/><path class="cls-1" d="M83.45,35.93H84V43H88v.48H83.45Z" transform="translate(-0.7 -5.36)"/><path class="cls-1" d="M90.42,42.51a4.11,4.11,0,0,1-.92-2.8,4.34,4.34,0,0,1,.92-2.89,3.31,3.31,0,0,1,4.89,0,4.34,4.34,0,0,1,.92,2.89,4.11,4.11,0,0,1-.92,2.8,3.35,3.35,0,0,1-4.89,0Zm4.52-.34a3.67,3.67,0,0,0,.78-2.46,3.86,3.86,0,0,0-.78-2.53,2.72,2.72,0,0,0-4.15,0A3.86,3.86,0,0,0,90,39.71a3.67,3.67,0,0,0,.78,2.46,2.78,2.78,0,0,0,4.15,0Z" transform="translate(-0.7 -5.36)"/><path class="cls-1" d="M98.48,43.48V35.93h3.41a1.59,1.59,0,0,1,1.25.6,2.16,2.16,0,0,1,.52,1.44,2.32,2.32,0,0,1-.52,1.5,1.55,1.55,0,0,1-1.25.62H99v3.39Zm3.32-3.87a1.2,1.2,0,0,0,1-.46,1.56,1.56,0,0,0,.4-1.09,1.74,1.74,0,0,0-.4-1.16,1.18,1.18,0,0,0-1-.47H99v3.18Z" transform="translate(-0.7 -5.36)"/><path class="cls-1" d="M105.77,43.48V35.93h.8l2.76,6.92,2.75-6.92h.81v7.55h-.51v-7l-2.82,7h-.47l-2.81-7v7Z" transform="translate(-0.7 -5.36)"/><path class="cls-1" d="M115.54,43.48V35.93h4.93v.5h-4.42v2.9h4v.47h-4V43h4.42v.48Z" transform="translate(-0.7 -5.36)"/><path class="cls-1" d="M122.45,43.48V35.93h.7l4.56,6.93V35.93h.51v7.55h-.7L123,36.66v6.82Z" transform="translate(-0.7 -5.36)"/><path class="cls-1" d="M132.7,43.48v-7h-2.59v-.5h5.71v.5H133.2v7Z" transform="translate(-0.7 -5.36)"/><path class="cls-2" d="M20.49,34a23.72,23.72,0,0,1-4.71-5.86A22.62,22.62,0,0,1,13.89,24c-2.06-6.1-1-12.7.19-18.62a26.5,26.5,0,0,1,6.7,9.43,22.65,22.65,0,0,1,1.6,12.35c-.48,2.54-1.54,4.9-1.2,7.64a2.94,2.94,0,0,0-.93-.9" transform="translate(-0.7 -5.36)"/><path class="cls-2" d="M20.31,36A20.4,20.4,0,0,1,15,38.47a15.91,15.91,0,0,1-3.18.66c-4.44.38-8-1.79-11.16-3.85a21.43,21.43,0,0,1,8.16-3.34,11.73,11.73,0,0,1,8,1.21c1.35.88,2.38,2.17,4.17,2.45a2.78,2.78,0,0,0-.89.55" transform="translate(-0.7 -5.36)"/><path class="cls-2" d="M36.06,20.43a22.37,22.37,0,0,1-1.54,6.25,14.87,14.87,0,0,1-1.63,3c-2.72,3.77-7,4.66-10.82,5.31a22.75,22.75,0,0,1,2.82-9.22c1.6-2.68,4-4.72,6.5-5.17,1.65-.3,3.43,0,4.88-1.11a3.31,3.31,0,0,0-.16,1.17" transform="translate(-0.7 -5.36)"/><path class="cls-3" d="M12.66,43.61c3.5.69,7.17-1.66,9.34-6a8.89,8.89,0,0,0,5.62,5.06,16.73,16.73,0,0,0,6.65.08" transform="translate(-0.7 -5.36)"/></svg>