<?xml version="1.0" encoding="utf-8"?>
<!-- Generator: Adobe Illustrator 23.1.1, SVG Export Plug-In . SVG Version: 6.00 Build 0)  -->
<svg version="1.1" id="Layer_1" xmlns="http://www.w3.org/2000/svg" xmlns:xlink="http://www.w3.org/1999/xlink" x="0px" y="0px"
	 viewBox="0 0 288 170" style="enable-background:new 0 0 288 170;" xml:space="preserve">
<style type="text/css">
	.st0{fill:#8EC44D;}
	.st1{fill:none;}
	.st2{fill:#424242;}
	.st3{font-family:'ShreeDev0714';}
	.st4{font-size:59px;}
	.st5{font-size:26px;}
	.st6{letter-spacing:2;}
</style>
<g>
	<g>
		<path class="st0" d="M198.37,89.8c-5.38-5.72-9.89-12.51-13.22-19.92c-1.84-4.1-3.33-8.4-4.15-12.83
			c-3.4-18.45,5.01-35.74,13.13-51.13c8.09,8.75,14.83,19.44,18.1,31.35c3.28,11.92,2.83,25.11-2.44,35.28
			c-3.42,6.61-8.88,12.25-9.45,20.1c-0.71-1.29-1.69-2.41-2.81-3.24"/>
	</g>
	<g>
		<path class="st0" d="M196.37,95.23c-6.51,1.65-13.62,2.55-20.85,2.65c-4,0.05-8.06-0.14-12-0.74
			c-16.41-2.5-27.97-11.33-38.05-19.55c9.91-2.44,20.98-3.66,31.93-2.66c10.95,1.01,21.74,4.4,28.44,9.78
			c4.35,3.49,7.24,7.89,13.55,10.09c-1.31,0.09-2.55,0.37-3.61,0.8"/>
	</g>
	<g>
		<path class="st0" d="M264.06,65.03c-2.21,5.77-5.54,11.22-9.78,15.98c-2.34,2.63-4.98,5.07-7.95,7.04
			c-12.4,8.21-28.42,7.26-42.91,5.95c3.43-8.72,8.81-17.03,16.42-23.14s17.56-9.84,27.11-9.04c6.2,0.52,12.45,2.84,18.49,0.86
			c-0.69,0.93-1.15,2-1.34,3.09"/>
	</g>
</g>
<g>
	<rect x="3" y="95.8" class="st1" width="447" height="46.2"/>
	<text transform="matrix(1 0 0 1 3.0044 139.2607)" class="st2 st3 st4">Grassroots</text>
</g>
<g>
	<rect x="48.79" y="146.71" class="st1" width="230.21" height="23.29"/>
	<text transform="matrix(1 0 0 1 48.7902 165.8577)" class="st2 st3 st5 st6">DEVELOPMENT</text>
</g>
</svg>
